# xmcd
#
# Track frame offsets:
# 150
# 12101
# 26710
# 44513
# 69363
# 82691
# 99214
# 114544
# 155410
# 170609
# 186860
#
# Disc length: 2668 seconds
#
#
# Revision: 0
# Processed by: cddbd v1.5.2PL0 Copyright (c) Steve Scherf et al.
# Submitted via: FreeRIP 2.951 
#
DISCID=7d0a6a0b
DTITLE=Buckethead - rrrrrrrrrr
DYEAR=1900
DGENRE=Avantgarde
TTITLE0=King James
TTITLE1=Gory Head Stump 2006 The Pageant of The Slunks
TTITLE2=The Fairy and the Devil
TTITLE3=Buddy Berkman's Ballad
TTITLE4=Mad Monster Party
TTITLE5=Soothsayer (Dedicated to Aunt Suzie)
TTITLE6=Col. Austin vs Col. Sanders aka Red Track Suit
TTITLE7=We Can Rebuild Him
TTITLE8=Electronic Slight of Hand
TTITLE9=Mecha Gigan
TTITLE10=Slunk Parade aka Freaks in The Black
EXTD=
EXTT0=
EXTT1=
EXTT2=
EXTT3=
EXTT4=
EXTT5=
EXTT6=
EXTT7=
EXTT8=
EXTT9=
EXTT10=
PLAYORDER=
